<?xml version="1.0" encoding="UTF-8"?>
<svg id="Layer_2" data-name="Layer 2" xmlns="http://www.w3.org/2000/svg" viewBox="0 0 1200 1200">
  <defs>
    <style>
      .cls-1 {
        fill: #262464;
      }

      .cls-2 {
        fill: #5cc8ff;
      }
    </style>
  </defs>
  <g id="symbol_color_dark">
    <g id="symbol_color_dark-2" data-name="symbol_color_dark">
      <path class="cls-1" d="M845.1,646.27v-154.92h109.23c135.46,0,245.67-110.21,245.67-245.67S1089.79,0,954.33,0s-245.68,110.21-245.68,245.68v400.59h136.44ZM845.1,245.68c0-60.23,49-109.23,109.23-109.23s109.23,49,109.23,109.23-49,109.23-109.23,109.23h-109.23v-109.23Z"/>
      <path class="cls-1" d="M550.49,845.1h154.92v109.23c0,135.46,110.21,245.67,245.67,245.67s245.68-110.21,245.68-245.67-110.21-245.68-245.68-245.68h-400.59v136.44ZM951.08,845.1c60.23,0,109.23,49,109.23,109.23s-49,109.23-109.23,109.23-109.23-49-109.23-109.23v-109.23h109.23Z"/>
      <path class="cls-2" d="M354.9,553.73v154.92h-109.23C110.21,708.65,0,818.86,0,954.32s110.21,245.68,245.67,245.68,245.68-110.21,245.68-245.68v-400.59h-136.44ZM354.9,954.32c0,60.23-49,109.23-109.23,109.23s-109.23-49-109.23-109.23,49-109.23,109.23-109.23h109.23v109.23Z"/>
      <path class="cls-1" d="M646.27,354.9h-154.92v-109.23C491.35,110.21,381.14,0,245.68,0S0,110.21,0,245.67s110.21,245.68,245.68,245.68h400.59v-136.44ZM245.68,354.9c-60.23,0-109.23-49-109.23-109.23s49-109.23,109.23-109.23,109.23,49,109.23,109.23v109.23h-109.23Z"/>
    </g>
  </g>
</svg>